# xmcd CD database file
#
# Track frame offsets:
#	150
#	8935
#	34753
#	51530
#	69725
#	89255
#	109498
#	128940
#	151508
#	179893
#	196833
#
# Disc length: 2874 seconds
#
# Revision: 0
# Processed by: cddbd v1.5.1PL2 Copyright (c) Steve Scherf et al.
# Submitted via: CDex 1.51
#
DISCID=9b0b380b
DTITLE=Marco May - Seven Seas
DYEAR=1996
DGENRE=New Age
TTITLE0=Breathe
TTITLE1=Yku
TTITLE2=Kiss of the night
TTITLE3=Tie to follow...
TTITLE4=Librarsi
TTITLE5=Parada
TTITLE6=All Alone
TTITLE7=Memoria
TTITLE8=Seven Seas
TTITLE9=From Within
TTITLE10=Yeku (Radio edit)
EXTD=YEAR: 1996
EXTT0=
EXTT1=
EXTT2=
EXTT3=
EXTT4=
EXTT5=
EXTT6=
EXTT7=
EXTT8=
EXTT9=
EXTT10=
PLAYORDER=
